<?xml version="1.0" standalone="no"?>
<!DOCTYPE svg PUBLIC "-//W3C//DTD SVG 20010904//EN"
 "http://www.w3.org/TR/2001/REC-SVG-20010904/DTD/svg10.dtd">
<svg version="1.0" xmlns="http://www.w3.org/2000/svg"
 width="980.000000pt" height="980.000000pt" viewBox="0 0 980.000000 980.000000"
 preserveAspectRatio="xMidYMid meet">

<g transform="translate(0.000000,980.000000) scale(0.100000,-0.100000)"
fill="#777777" stroke="none">
<path d="M4545 9790 c-286 -29 -544 -92 -800 -195 -1109 -445 -1822 -1535
-1782 -2725 26 -754 325 -1428 869 -1956 461 -447 1041 -716 1688 -784 143
-15 457 -12 604 5 1134 133 2072 918 2401 2009 120 398 149 865 79 1286 -93
565 -358 1086 -764 1503 -323 333 -693 568 -1130 719 -125 43 -346 95 -500
119 -155 23 -519 33 -665 19z"/>
<path d="M2380 3847 c-704 -411 -1253 -875 -1526 -1292 -400 -611 -699 -1460
-829 -2355 -13 -96 -25 -181 -25 -187 0 -10 987 -13 4901 -13 l4901 0 -7 52
c-91 745 -292 1448 -581 2033 -115 233 -228 424 -342 575 -102 135 -376 415
-542 552 -271 225 -646 484 -946 656 l-92 52 -73 -43 c-419 -247 -1031 -499
-1497 -616 -343 -86 -605 -121 -907 -121 -272 0 -482 27 -778 100 -459 114
-1046 370 -1460 636 -37 24 -69 44 -70 44 -1 0 -58 -33 -127 -73z"/>
</g>
</svg>
